<svg width="100" height="40" viewBox="0 0 100 40" fill="none" xmlns="http://www.w3.org/2000/svg">
<path d="M19.444 22.444H30.5551V33.5551H19.444V22.444Z" fill="#2160FD"/>
<path d="M24.9996 5.82291C24.5405 5.79269 24.0774 5.77734 23.6107 5.77734C12.1047 5.77734 2.77734 15.1047 2.77734 26.6107C2.77734 27.077 2.79267 27.5398 2.82283 27.9985H16.6662V19.6652H24.9996V5.82291Z" fill="#2160FD"/>
<path d="M36.1113 20.2234C36.1113 18.6709 36.4139 17.294 37.019 16.0927C37.6424 14.8914 38.4858 13.9673 39.5493 13.3205C40.6128 12.6736 41.7955 12.3502 43.0973 12.3502C44.0875 12.3502 45.0318 12.572 45.9303 13.0155C46.8287 13.4406 47.5438 14.0136 48.0756 14.7343V7.44336H51.9811V27.9579H48.0756V25.6847C47.5988 26.4424 46.9296 27.0523 46.0678 27.5143C45.206 27.9764 44.2067 28.2074 43.0698 28.2074C41.7863 28.2074 40.6128 27.8747 39.5493 27.2094C38.4858 26.544 37.6424 25.6107 37.019 24.4094C36.4139 23.1896 36.1113 21.7943 36.1113 20.2234ZM48.1031 20.2788C48.1031 19.3362 47.9197 18.5323 47.553 17.867C47.1863 17.1831 46.6912 16.6657 46.0678 16.3145C45.4444 15.9449 44.7751 15.7601 44.06 15.7601C43.3449 15.7601 42.6848 15.9356 42.0797 16.2868C41.4746 16.6379 40.9795 17.1554 40.5945 17.8392C40.2278 18.5046 40.0444 19.2993 40.0444 20.2234C40.0444 21.1474 40.2278 21.9606 40.5945 22.6629C40.9795 23.3467 41.4746 23.8735 42.0797 24.2431C42.7031 24.6127 43.3632 24.7975 44.06 24.7975C44.7751 24.7975 45.4444 24.622 46.0678 24.2708C46.6912 23.9012 47.1863 23.3837 47.553 22.7184C47.9197 22.0345 48.1031 21.2214 48.1031 20.2788Z" fill="white"/>
<path d="M70.319 12.5997L60.8851 35.2211H56.787L60.0875 27.5698L53.9816 12.5997H58.2998L62.2328 23.3283L66.2209 12.5997H70.319Z" fill="white"/>
<path d="M76.8779 15.7878V23.2174C76.8779 23.7348 76.997 24.1137 77.2354 24.354C77.4921 24.5758 77.9138 24.6866 78.5006 24.6866H80.2884V27.9579H77.868C74.6225 27.9579 72.9998 26.3685 72.9998 23.1896V15.7878H71.1845V12.5997H72.9998V8.80175H76.8779V12.5997H80.2884V15.7878H76.8779Z" fill="white"/>
<path d="M97.2224 19.9461C97.2224 20.5006 97.1858 20.9996 97.1124 21.4431H85.9733C86.065 22.552 86.45 23.4207 87.1285 24.049C87.8069 24.6774 88.6412 24.9916 89.6313 24.9916C91.0615 24.9916 92.0792 24.3725 92.6843 23.1342H96.8374C96.3973 24.6127 95.5539 25.8325 94.307 26.7935C93.0602 27.7361 91.5291 28.2074 89.7138 28.2074C88.247 28.2074 86.9268 27.884 85.7533 27.2371C84.5981 26.5718 83.6905 25.6384 83.0304 24.4371C82.3886 23.2358 82.0677 21.8497 82.0677 20.2788C82.0677 18.6894 82.3886 17.294 83.0304 16.0927C83.6721 14.8914 84.5706 13.9673 85.7258 13.3205C86.8809 12.6736 88.2103 12.3502 89.7138 12.3502C91.1624 12.3502 92.4551 12.6644 93.5919 13.2928C94.7471 13.9211 95.6364 14.8175 96.2598 15.9818C96.9016 17.1277 97.2224 18.4491 97.2224 19.9461ZM93.2344 18.8372C93.216 17.8392 92.8585 17.0445 92.1617 16.4531C91.4649 15.8432 90.6123 15.5383 89.6038 15.5383C88.6504 15.5383 87.8436 15.834 87.1835 16.4254C86.5417 16.9983 86.1475 17.8023 86.0008 18.8372H93.2344Z" fill="white"/>
</svg>
